<?xml version="1.0" encoding="iso-8859-1"?>
<!-- Generator: Adobe Illustrator 18.1.1, SVG Export Plug-In . SVG Version: 6.00 Build 0)  -->
<svg version="1.1" id="Capa_1" xmlns="http://www.w3.org/2000/svg" xmlns:xlink="http://www.w3.org/1999/xlink" x="0px" y="0px"
	 viewBox="0 0 50.191 50.191" style="enable-background:new 0 0 50.191 50.191;" xml:space="preserve">
<g>
	<g>
		<g>
			<path d="M40.702,23.597c-0.252-0.684-0.777-1.266-1.51-1.554l-6.291-3.167
				c-0.147-0.057-0.297-0.095-0.447-0.126V0H9.179v34.332l14.863,0.002c-0.004,1.518-0.039,9.412-0.039,9.412h11.455l5.279-17.255
				C41.133,25.483,41.081,24.435,40.702,23.597z M10.925,1.745h19.783v29.593c-0.481-0.217-0.93-0.619-1.286-1.337v-5.525
				c0-1.928,0.188-3.491-1.793-3.491s-3.587,1.563-3.587,3.491v8.111H10.925L10.925,1.745L10.925,1.745z"/>
			<rect x="22.87" y="45.367" width="14.729" height="4.824"/>
		</g>
	</g>
</g>
<g>
</g>
<g>
</g>
<g>
</g>
<g>
</g>
<g>
</g>
<g>
</g>
<g>
</g>
<g>
</g>
<g>
</g>
<g>
</g>
<g>
</g>
<g>
</g>
<g>
</g>
<g>
</g>
<g>
</g>
</svg>
